<svg width="259" height="54" viewBox="0 0 259 54" fill="none" xmlns="http://www.w3.org/2000/svg">
<path d="M21.872 51.536C21.488 52.0907 20.9547 52.496 20.272 52.752C19.5893 53.008 18.8853 53.0933 18.16 53.008C17.4773 52.9227 16.8373 52.6667 16.24 52.24C15.6853 51.856 15.3227 51.3013 15.152 50.576C15.1093 50.4907 15.0667 50.256 15.024 49.872C15.024 49.488 15.0027 49.104 14.96 48.72C14.96 48.2933 14.9387 47.9093 14.896 47.568C14.896 47.2267 14.896 47.056 14.896 47.056C13.9147 46.928 12.7627 46.7573 11.44 46.544C10.16 46.288 9.02933 45.9893 8.048 45.648C7.408 45.392 6.72533 45.136 6 44.88C5.31733 44.5813 4.656 44.2613 4.016 43.92C3.376 43.536 2.77867 43.1093 2.224 42.64C1.712 42.128 1.328 41.5307 1.072 40.848C0.858667 40.336 0.709333 39.8027 0.624 39.248C0.581333 38.6507 0.624 38.0747 0.752 37.52C0.922667 36.9653 1.17867 36.4747 1.52 36.048C1.904 35.6213 2.416 35.344 3.056 35.216C3.48267 35.088 3.90933 35.1093 4.336 35.28C4.76267 35.408 5.168 35.6 5.552 35.856C5.936 36.112 6.32 36.4107 6.704 36.752C7.088 37.0507 7.472 37.2853 7.856 37.456C8.83733 37.84 9.968 38.2027 11.248 38.544C12.5707 38.8427 13.7867 39.0773 14.896 39.248V28.112C14.128 27.856 13.2533 27.6213 12.272 27.408C11.3333 27.1947 10.5653 27.0027 9.968 26.832C9.41333 26.6187 8.90133 26.448 8.432 26.32C8.00533 26.1493 7.62133 25.9573 7.28 25.744C5.40267 25.0187 4.03733 23.888 3.184 22.352C2.75733 21.584 2.43733 20.816 2.224 20.048C2.01067 19.2373 1.904 18.3413 1.904 17.36C1.904 16.5067 1.98933 15.7173 2.16 14.992C2.33067 14.224 2.544 13.52 2.8 12.88C3.312 11.6 4.144 10.4907 5.296 9.552C5.808 9.04 6.384 8.61333 7.024 8.272C7.70667 7.93067 8.432 7.58933 9.2 7.248C9.92533 6.90666 10.8427 6.65066 11.952 6.48C13.0613 6.30933 14.0427 6.18133 14.896 6.096C14.896 5.49866 14.896 4.88 14.896 4.24C14.896 3.55733 15.0667 2.98133 15.408 2.512C15.92 1.78666 16.3893 1.27466 16.816 0.975998C17.2427 0.67733 17.8827 0.570663 18.736 0.655998C19.504 0.74133 20.1867 0.933331 20.784 1.232C21.3813 1.53066 21.8293 2.064 22.128 2.832C22.128 2.91733 22.128 3.152 22.128 3.536C22.1707 3.87733 22.2133 4.26133 22.256 4.688C22.2987 5.15733 22.32 5.69066 22.32 6.288C23.6853 6.58666 25.0933 6.97066 26.544 7.44C28.0373 7.86666 29.3813 8.42133 30.576 9.104C31.5147 9.70133 32.2613 10.384 32.816 11.152C33.4133 11.8773 33.6907 12.7947 33.648 13.904C33.6053 14.5013 33.3707 15.0773 32.944 15.632C32.5173 16.1867 32.0053 16.5067 31.408 16.592C30.7253 16.6773 30.0853 16.5707 29.488 16.272C28.8907 15.9307 28.3147 15.6107 27.76 15.312C27.0347 14.9707 26.1813 14.6293 25.2 14.288C24.2613 13.904 23.3013 13.6693 22.32 13.584V22.416C23.216 22.672 24.1547 23.0133 25.136 23.44C26.1173 23.824 26.9707 24.1653 27.696 24.464C30.0853 25.4453 31.8347 27.0027 32.944 29.136C34.096 31.2267 34.6293 33.488 34.544 35.92C34.5013 37.5413 34.1813 39.0347 33.584 40.4C33.2427 40.9973 32.8587 41.552 32.432 42.064C32.0053 42.576 31.536 43.0453 31.024 43.472C30.512 43.9413 29.9573 44.3467 29.36 44.688C28.7627 44.9867 28.1013 45.3067 27.376 45.648C26.6507 45.8613 25.84 46.0747 24.944 46.288C24.048 46.4587 23.1733 46.6293 22.32 46.8C22.2773 46.8 22.2347 46.9493 22.192 47.248C22.192 47.504 22.192 47.8027 22.192 48.144C22.2347 48.4853 22.256 48.8267 22.256 49.168C22.2987 49.4667 22.32 49.6373 22.32 49.68C22.32 50.4053 22.1707 51.024 21.872 51.536ZM10.352 17.68C10.3947 18.0213 10.544 18.4053 10.8 18.832C11.056 19.216 11.3547 19.536 11.696 19.792C12.08 20.048 12.5493 20.2613 13.104 20.432C13.6587 20.56 14.256 20.6667 14.896 20.752V13.52C13.488 13.6053 12.3147 13.968 11.376 14.608C10.48 15.2053 10.1387 16.2293 10.352 17.68ZM27.44 34.832C27.3547 34.2773 27.1413 33.7653 26.8 33.296C26.5013 32.784 26.096 32.336 25.584 31.952C25.1147 31.568 24.5813 31.248 23.984 30.992C23.4293 30.6933 22.8747 30.48 22.32 30.352C22.32 31.8453 22.3413 33.36 22.384 34.896C22.4693 36.3893 22.4907 37.8827 22.448 39.376C23.088 39.4613 23.728 39.4187 24.368 39.248C25.008 39.0347 25.5627 38.736 26.032 38.352C26.5013 37.9253 26.864 37.4133 27.12 36.816C27.4187 36.2187 27.5253 35.5573 27.44 34.832Z" fill="url(#paint0_linear_1829_676)"/>
<path d="M91.0395 7.824C91.0822 8.12267 91.1035 8.4 91.1035 8.656C91.1035 8.912 91.1035 9.168 91.1035 9.424V12.048L90.7195 45.264V45.904C90.7195 46.16 90.6555 46.544 90.5275 47.056C90.4848 47.2693 90.4208 47.504 90.3355 47.76C90.2502 47.9733 90.1648 48.208 90.0795 48.464C89.8662 48.976 89.5675 49.36 89.1835 49.616C88.8422 49.9573 88.2875 50.192 87.5195 50.32C86.3248 50.576 85.2368 50.4693 84.2555 50C83.7008 49.6587 83.3168 49.232 83.1035 48.72C83.0182 48.6347 82.9328 48.5067 82.8475 48.336C82.8475 48.2507 82.8048 48.1227 82.7195 47.952C82.6342 47.7387 82.5702 47.5253 82.5275 47.312C82.4848 47.056 82.4422 46.8 82.3995 46.544C82.3995 46.3307 82.3782 46.1173 82.3355 45.904C82.3355 45.6907 82.3142 45.4773 82.2715 45.264C82.1862 45.0507 82.1435 44.88 82.1435 44.752C82.1435 44.5813 82.1435 44.3893 82.1435 44.176C82.2288 44.0053 82.2715 43.6853 82.2715 43.216L82.3355 38.16L82.3995 30.096H78.9435L65.9515 30.16L65.8235 45.264V45.904C65.8235 46.16 65.7595 46.544 65.6315 47.056C65.5888 47.2693 65.5248 47.504 65.4395 47.76C65.3542 47.9733 65.2688 48.208 65.1835 48.464C64.9702 48.976 64.6715 49.36 64.2875 49.616C63.9462 49.9573 63.3915 50.192 62.6235 50.32C61.4288 50.576 60.3408 50.4693 59.3595 50C58.9328 49.744 58.5275 49.3173 58.1435 48.72C58.0582 48.5493 58.0155 48.4213 58.0155 48.336L57.8235 47.952C57.7382 47.7387 57.6742 47.5253 57.6315 47.312C57.5888 47.056 57.5462 46.8 57.5035 46.544C57.5035 46.3307 57.4822 46.1173 57.4395 45.904C57.3968 45.6907 57.3542 45.4773 57.3115 45.264C57.2688 44.9227 57.2688 44.56 57.3115 44.176V43.216L57.3755 38.16L57.5035 28.752C57.5462 27.3867 57.5675 25.9787 57.5675 24.528C57.5675 23.0773 57.5675 21.584 57.5675 20.048C57.5248 18.512 57.5035 17.1467 57.5035 15.952C57.5462 14.7573 57.6102 13.4133 57.6955 11.92V11.664C57.7382 11.2373 57.7595 10.8107 57.7595 10.384C57.7595 9.91466 57.7808 9.44533 57.8235 8.976C57.8662 8.54933 57.9302 8.144 58.0155 7.76C58.1435 7.33333 58.3142 6.90667 58.5275 6.48C58.6555 6.13867 58.8262 5.86133 59.0395 5.648C59.2528 5.392 59.5088 5.15733 59.8075 4.944C60.4902 4.60266 61.1728 4.432 61.8555 4.432C62.1968 4.432 62.4955 4.45333 62.7515 4.496C63.0075 4.496 63.2635 4.51733 63.5195 4.56C64.0315 4.60266 64.5222 4.85866 64.9915 5.328C65.3328 5.62666 65.5675 5.968 65.6955 6.352C65.9088 6.90666 66.0368 7.39733 66.0795 7.824C66.1222 8.12267 66.1435 8.4 66.1435 8.656C66.1435 8.912 66.1435 9.168 66.1435 9.424V12.048L66.0155 22.608C66.3568 22.608 66.7408 22.608 67.1675 22.608C67.6368 22.608 68.1702 22.5867 68.7675 22.544C70.9862 22.544 73.1835 22.5653 75.3595 22.608C77.5782 22.6507 79.9035 22.672 82.3355 22.672H82.3995C82.3995 20.752 82.3995 18.9173 82.3995 17.168C82.4422 15.4187 82.5062 13.584 82.5915 11.664C82.5915 11.2373 82.5915 10.8107 82.5915 10.384C82.6342 9.91466 82.6768 9.44533 82.7195 8.976C82.7622 8.54933 82.8262 8.144 82.9115 7.76C83.0395 7.33333 83.2102 6.90667 83.4235 6.48C83.5088 6.13867 83.6582 5.86133 83.8715 5.648C84.1275 5.392 84.4262 5.15733 84.7675 4.944C85.3648 4.60266 86.0262 4.432 86.7515 4.432C87.0928 4.432 87.3915 4.45333 87.6475 4.496C87.9462 4.496 88.2022 4.51733 88.4155 4.56C89.0128 4.64533 89.5035 4.90133 89.8875 5.328C90.2288 5.54133 90.4635 5.88266 90.5915 6.352C90.6768 6.608 90.7408 6.864 90.7835 7.12C90.8688 7.33333 90.9542 7.568 91.0395 7.824ZM105.016 12.368L104.888 22.416H107.448C109.197 22.3733 110.754 22.352 112.12 22.352C113.485 22.352 115 22.3733 116.664 22.416H116.984C117.496 22.416 117.986 22.4373 118.456 22.48C118.968 22.48 119.458 22.48 119.928 22.48C120.44 22.5227 120.93 22.608 121.4 22.736C121.869 22.8213 122.338 22.928 122.808 23.056C123.533 23.312 124.13 23.696 124.6 24.208C125.026 24.7627 125.24 25.3813 125.24 26.064C125.24 26.2773 125.24 26.5333 125.24 26.832C125.24 27.088 125.197 27.3227 125.112 27.536C125.026 28.0053 124.749 28.432 124.28 28.816C124.066 29.1147 123.661 29.328 123.064 29.456C122.509 29.6267 121.954 29.7333 121.4 29.776C120.802 29.904 120.205 29.968 119.608 29.968H116.6L104.76 30.032L104.632 42.576L117.368 42.704H120.376C120.717 42.704 121.037 42.704 121.336 42.704C121.634 42.704 121.912 42.7253 122.168 42.768C122.509 42.8533 122.808 42.9173 123.064 42.96C123.362 42.96 123.64 43.0027 123.896 43.088C124.408 43.2587 124.834 43.4933 125.176 43.792C125.602 44.2187 125.88 44.6667 126.007 45.136C126.05 45.3493 126.072 45.584 126.072 45.84C126.114 46.0533 126.114 46.288 126.072 46.544C126.072 47.2267 125.858 47.8453 125.432 48.4C124.92 48.9973 124.322 49.3813 123.64 49.552C122.744 49.936 121.762 50.128 120.696 50.128C120.226 50.1707 119.736 50.192 119.224 50.192C118.712 50.192 118.221 50.2133 117.752 50.256H117.368C114.04 50.3413 110.584 50.3413 107 50.256C106.146 50.256 105.464 50.2347 104.952 50.192C104.44 50.192 103.97 50.192 103.544 50.192C103.16 50.192 102.754 50.192 102.328 50.192C101.901 50.192 101.346 50.192 100.664 50.192C99.6822 50.2773 98.8715 50.1067 98.2315 49.68C97.7622 49.3813 97.3995 48.976 97.1435 48.464C97.0155 48.336 96.9515 48.208 96.9515 48.08C96.9088 47.9947 96.8662 47.9307 96.8235 47.888C96.7808 47.8453 96.7382 47.7813 96.6955 47.696C96.6102 47.4827 96.5462 47.2693 96.5035 47.056C96.4608 46.8 96.4395 46.5653 96.4395 46.352C96.3968 46.1387 96.3542 45.9253 96.3115 45.712C96.3115 45.4987 96.2902 45.2853 96.2475 45.072V44.048C96.2475 43.8773 96.2475 43.7067 96.2475 43.536C96.2902 43.3653 96.3115 43.1947 96.3115 43.024V38.032L96.4395 28.816V20.304C96.4395 18.768 96.4395 17.4027 96.4395 16.208C96.4822 15.0133 96.5248 13.712 96.5675 12.304V11.984C96.6102 11.5147 96.6315 11.088 96.6315 10.704C96.6742 10.2773 96.6955 9.85067 96.6955 9.424C96.7382 8.57066 96.9728 7.73866 97.3995 6.928C97.5702 6.58666 97.7408 6.288 97.9115 6.032C98.1248 5.776 98.4022 5.56267 98.7435 5.392C99.3835 5.008 100.045 4.816 100.728 4.816C101.069 4.816 101.325 4.83733 101.496 4.88V4.816C102.264 4.816 102.882 4.816 103.352 4.816C103.821 4.816 104.269 4.816 104.696 4.816C105.165 4.816 105.656 4.816 106.168 4.816C106.68 4.77333 107.384 4.752 108.28 4.752C109.986 4.70933 111.608 4.688 113.144 4.688C114.68 4.688 116.258 4.70933 117.88 4.752H118.136C118.605 4.79467 119.096 4.816 119.608 4.816C120.12 4.816 120.61 4.83733 121.08 4.88C121.549 4.88 122.018 4.944 122.488 5.072C122.957 5.15733 123.426 5.28533 123.896 5.456C124.621 5.66933 125.218 6.032 125.688 6.544C126.072 7.14133 126.264 7.73867 126.264 8.336C126.264 8.592 126.264 8.848 126.264 9.104C126.264 9.31733 126.221 9.53067 126.136 9.744C126.093 10.1707 125.837 10.6187 125.368 11.088C125.197 11.1733 125.005 11.28 124.792 11.408C124.621 11.536 124.408 11.6427 124.152 11.728C123.896 11.8133 123.618 11.8773 123.32 11.92C123.064 11.92 122.808 11.9413 122.552 11.984C122.21 12.0693 121.89 12.112 121.592 12.112C121.336 12.112 121.037 12.112 120.696 12.112H117.816L105.016 12.176V12.368ZM160.941 45.136C161.026 45.3493 161.069 45.6693 161.069 46.096C161.069 46.48 161.069 46.8 161.069 47.056C161.069 47.3973 161.005 47.7173 160.877 48.016C160.749 48.3147 160.578 48.592 160.365 48.848C159.981 49.36 159.426 49.744 158.701 50C157.677 50.3413 156.717 50.512 155.821 50.512C155.351 50.5547 154.861 50.576 154.349 50.576C153.837 50.576 153.325 50.6187 152.813 50.704H152.557C149.271 50.7467 145.879 50.7467 142.381 50.704C141.527 50.6613 140.567 50.6613 139.501 50.704C138.434 50.7893 137.389 50.768 136.365 50.64C135.341 50.5547 134.402 50.32 133.549 49.936C132.738 49.5093 132.162 48.848 131.821 47.952C131.735 47.7387 131.671 47.5467 131.629 47.376C131.586 47.1627 131.565 46.9493 131.565 46.736C131.394 45.2853 131.33 43.856 131.373 42.448C131.415 41.04 131.437 39.6533 131.437 38.288L131.565 29.008V20.432C131.565 18.896 131.565 17.5307 131.565 16.336C131.607 15.1413 131.65 13.8187 131.693 12.368V12.048C131.735 11.6213 131.757 11.1947 131.757 10.768C131.799 10.3413 131.821 9.91467 131.821 9.488C131.906 8.50667 132.141 7.67466 132.525 6.992C132.781 6.352 133.229 5.84 133.869 5.456C134.423 5.072 135.085 4.88 135.853 4.88C136.151 4.88 136.429 4.90133 136.685 4.944C136.983 4.944 137.261 4.96533 137.517 5.008C137.773 5.05067 138.007 5.136 138.22 5.264C138.477 5.392 138.733 5.56266 138.989 5.776C139.245 6.07467 139.479 6.43733 139.693 6.864C139.863 7.33333 139.97 7.80266 140.013 8.272C140.055 8.57066 140.098 8.848 140.141 9.104C140.183 9.36 140.205 9.616 140.205 9.872C140.119 10.128 140.077 10.384 140.077 10.64C140.077 10.896 140.077 11.1307 140.077 11.344V12.496L139.821 42.64L152.493 42.768H155.501C155.757 42.768 156.034 42.7893 156.333 42.832C156.631 42.832 156.93 42.8533 157.229 42.896C157.57 42.9387 157.869 42.9813 158.125 43.024C158.381 43.0667 158.637 43.1307 158.893 43.216C159.362 43.344 159.746 43.5573 160.045 43.856C160.514 44.2827 160.813 44.7093 160.941 45.136ZM168.169 43.216L168.233 38.16L168.297 28.752C168.34 27.3867 168.361 25.9787 168.361 24.528C168.361 23.0773 168.361 21.584 168.361 20.048C168.361 18.512 168.361 17.1467 168.361 15.952C168.361 14.7573 168.404 13.4133 168.489 11.92V11.664C168.532 11.2373 168.553 10.8107 168.553 10.384C168.596 9.91466 168.617 9.44533 168.617 8.976C168.66 8.208 168.894 7.376 169.321 6.48C169.62 5.88267 170.068 5.37067 170.665 4.944C171.348 4.60266 172.009 4.432 172.649 4.432C172.99 4.432 173.289 4.45333 173.545 4.496C173.844 4.496 174.121 4.51733 174.377 4.56C174.932 4.64533 175.422 4.90133 175.849 5.328C176.105 5.54133 176.34 5.88266 176.553 6.352C176.638 6.608 176.702 6.864 176.745 7.12C176.83 7.33333 176.894 7.568 176.937 7.824C176.98 8.12267 177.001 8.4 177.001 8.656C177.044 8.912 177.065 9.168 177.065 9.424C177.065 9.72267 177.044 10 177.001 10.256C177.001 10.4693 177.001 10.704 177.001 10.96V12.048L176.617 45.264V45.904C176.617 46.032 176.596 46.2027 176.553 46.416C176.553 46.5867 176.532 46.8 176.489 47.056C176.404 47.2693 176.318 47.504 176.233 47.76C176.19 47.9733 176.126 48.208 176.041 48.464C175.913 48.6773 175.764 48.8907 175.593 49.104C175.465 49.2747 175.294 49.4453 175.081 49.616C174.74 49.9573 174.185 50.192 173.417 50.32C172.265 50.576 171.177 50.4693 170.153 50C169.641 49.6587 169.278 49.232 169.065 48.72C168.937 48.592 168.873 48.464 168.873 48.336C168.83 48.2507 168.788 48.1867 168.745 48.144C168.702 48.1013 168.66 48.0373 168.617 47.952C168.532 47.7387 168.468 47.5253 168.425 47.312C168.382 47.056 168.361 46.8 168.361 46.544C168.318 46.3307 168.276 46.1173 168.233 45.904C168.233 45.6907 168.212 45.4773 168.169 45.264C168.126 44.9227 168.126 44.56 168.169 44.176V43.216ZM195.451 6.224C198.309 5.15733 200.891 4.688 203.195 4.816C205.541 4.944 207.632 5.54133 209.467 6.608C211.301 7.632 212.859 9.01866 214.139 10.768C215.461 12.5173 216.528 14.48 217.339 16.656C217.979 18.2773 218.469 19.984 218.811 21.776C219.152 23.568 219.344 25.36 219.387 27.152C219.472 28.9013 219.408 30.6293 219.194 32.336C219.024 34.0427 218.725 35.6213 218.299 37.072C218.043 38.0533 217.744 38.9493 217.403 39.76C217.061 40.5707 216.656 41.3813 216.187 42.192C215.12 44.0267 213.733 45.52 212.027 46.672C210.363 47.824 208.528 48.6347 206.523 49.104C205.157 49.4453 203.749 49.616 202.299 49.616C200.848 49.5733 199.419 49.3813 198.01 49.04C196.603 48.656 195.237 48.1227 193.915 47.44C192.635 46.7147 191.461 45.8187 190.395 44.752C189.072 43.472 187.984 42 187.131 40.336C186.277 38.6293 185.616 36.8587 185.147 35.024C184.677 33.1467 184.379 31.2693 184.251 29.392C184.123 27.5147 184.123 25.7227 184.251 24.016C184.379 22.4373 184.677 20.752 185.147 18.96C185.659 17.168 186.384 15.44 187.323 13.776C188.261 12.112 189.392 10.6187 190.715 9.296C192.08 7.93066 193.659 6.90666 195.451 6.224ZM210.427 33.616C210.939 31.6107 211.152 29.3493 211.067 26.832C210.981 24.3147 210.576 21.9467 209.851 19.728C209.381 18.3627 208.784 17.168 208.059 16.144C207.376 15.0773 206.544 14.2667 205.563 13.712C204.624 13.1573 203.515 12.88 202.235 12.88C200.955 12.88 199.525 13.264 197.947 14.032C197.008 14.5013 196.197 15.1413 195.515 15.952C194.875 16.7627 194.341 17.68 193.915 18.704C193.531 19.728 193.211 20.7947 192.955 21.904C192.741 23.0133 192.613 24.08 192.571 25.104C192.485 26.2133 192.464 27.3867 192.507 28.624C192.549 29.8187 192.677 31.0347 192.891 32.272C193.147 33.4667 193.488 34.6187 193.915 35.728C194.341 36.7947 194.917 37.7547 195.643 38.608C196.752 39.888 198.032 40.784 199.483 41.296C200.976 41.7653 202.448 41.8293 203.899 41.488C206.245 40.976 208.037 39.4187 209.275 36.816C209.787 35.8773 210.171 34.8107 210.427 33.616ZM257.775 31.376C257.988 31.9733 258.137 32.656 258.222 33.424C258.351 34.1493 258.415 34.896 258.415 35.664C258.415 36.432 258.351 37.2 258.222 37.968C258.137 38.6933 258.009 39.3333 257.839 39.888C257.156 42.2773 255.791 44.2827 253.743 45.904C251.695 47.4827 249.348 48.6347 246.703 49.36C244.1 50.0853 241.391 50.3413 238.575 50.128C235.801 49.9147 233.327 49.2107 231.151 48.016C229.785 47.248 228.612 46.3093 227.631 45.2C226.649 44.0907 225.817 42.8533 225.135 41.488C224.879 41.0187 224.708 40.4853 224.623 39.888C224.58 39.248 224.644 38.6507 224.815 38.096C224.985 37.4987 225.263 36.9867 225.647 36.56C226.031 36.0907 226.564 35.7707 227.247 35.6C227.673 35.5147 228.143 35.472 228.655 35.472C229.209 35.472 229.743 35.5573 230.255 35.728C230.767 35.856 231.236 36.0907 231.663 36.432C232.089 36.7307 232.431 37.1573 232.687 37.712C233.156 38.608 233.817 39.44 234.671 40.208C235.567 40.9333 236.505 41.5307 237.487 42C238.895 42.4693 240.303 42.6613 241.711 42.576C243.161 42.4907 244.463 42.1707 245.615 41.616C246.809 41.0613 247.769 40.3147 248.495 39.376C249.22 38.3947 249.583 37.2853 249.583 36.048C249.583 35.024 249.433 34.192 249.135 33.552C248.836 32.8693 248.409 32.3147 247.855 31.888C247.343 31.4187 246.703 31.0347 245.935 30.736C245.209 30.4373 244.399 30.1813 243.503 29.968C242.479 29.7547 241.433 29.6053 240.367 29.52C239.343 29.4347 238.297 29.328 237.231 29.2C236.164 29.072 235.119 28.9013 234.095 28.688C233.071 28.4747 232.068 28.1547 231.087 27.728C229.124 26.9173 227.631 25.68 226.607 24.016C225.583 22.352 224.964 20.56 224.751 18.64C224.58 16.72 224.815 14.8213 225.455 12.944C226.095 11.024 227.119 9.38133 228.527 8.016C229.892 6.77866 231.513 5.904 233.391 5.392C235.311 4.83733 237.423 4.51733 239.727 4.432C241.007 4.38933 242.287 4.432 243.567 4.56C244.889 4.688 246.148 4.90133 247.343 5.2C248.58 5.49866 249.711 5.88266 250.735 6.352C251.801 6.82133 252.719 7.376 253.487 8.016C254.041 8.44267 254.596 9.01867 255.151 9.744C255.705 10.4267 256.132 11.1733 256.431 11.984C256.729 12.752 256.815 13.4987 256.687 14.224C256.601 14.9493 256.153 15.568 255.343 16.08C254.66 16.5067 253.999 16.6987 253.359 16.656C252.761 16.5707 252.185 16.3787 251.631 16.08C251.076 15.7387 250.543 15.3547 250.031 14.928C249.519 14.5013 249.049 14.1173 248.623 13.776C247.471 12.9227 246.041 12.3467 244.335 12.048C242.628 11.7493 241.028 11.6853 239.535 11.856C238.596 11.984 237.721 12.1973 236.911 12.496C236.1 12.7947 235.396 13.2 234.799 13.712C234.244 14.224 233.796 14.864 233.455 15.632C233.156 16.3573 233.049 17.1893 233.135 18.128C233.177 18.8107 233.369 19.3867 233.711 19.856C234.095 20.3253 234.543 20.7093 235.055 21.008C235.609 21.3067 236.207 21.5413 236.847 21.712C237.487 21.8827 238.127 22.0107 238.767 22.096C240.687 22.352 242.607 22.544 244.527 22.672C246.447 22.8 248.324 23.2267 250.159 23.952C252.036 24.6773 253.636 25.6587 254.958 26.896C256.281 28.1333 257.22 29.6267 257.775 31.376Z" fill="white"/>
<defs>
<linearGradient id="paint0_linear_1829_676" x1="-2" y1="-9" x2="62.6458" y2="67.1658" gradientUnits="userSpaceOnUse">
<stop stop-color="#FF3968"/>
<stop offset="1" stop-color="#6D48FF"/>
</linearGradient>
</defs>
</svg>
