<svg width="242" height="54" viewBox="0 0 242 54" fill="none" xmlns="http://www.w3.org/2000/svg">
<path d="M21.872 51.536C21.488 52.0907 20.9547 52.496 20.272 52.752C19.5893 53.008 18.8853 53.0933 18.16 53.008C17.4773 52.9227 16.8373 52.6667 16.24 52.24C15.6853 51.856 15.3227 51.3013 15.152 50.576C15.1093 50.4907 15.0667 50.256 15.024 49.872C15.024 49.488 15.0027 49.104 14.96 48.72C14.96 48.2933 14.9387 47.9093 14.896 47.568C14.896 47.2267 14.896 47.056 14.896 47.056C13.9147 46.928 12.7627 46.7573 11.44 46.544C10.16 46.288 9.02933 45.9893 8.048 45.648C7.408 45.392 6.72533 45.136 6 44.88C5.31733 44.5813 4.656 44.2613 4.016 43.92C3.376 43.536 2.77867 43.1093 2.224 42.64C1.712 42.128 1.328 41.5307 1.072 40.848C0.858667 40.336 0.709333 39.8027 0.624 39.248C0.581333 38.6507 0.624 38.0747 0.752 37.52C0.922667 36.9653 1.17867 36.4747 1.52 36.048C1.904 35.6213 2.416 35.344 3.056 35.216C3.48267 35.088 3.90933 35.1093 4.336 35.28C4.76267 35.408 5.168 35.6 5.552 35.856C5.936 36.112 6.32 36.4107 6.704 36.752C7.088 37.0507 7.472 37.2853 7.856 37.456C8.83733 37.84 9.968 38.2027 11.248 38.544C12.5707 38.8427 13.7867 39.0773 14.896 39.248V28.112C14.128 27.856 13.2533 27.6213 12.272 27.408C11.3333 27.1947 10.5653 27.0027 9.968 26.832C9.41333 26.6187 8.90133 26.448 8.432 26.32C8.00533 26.1493 7.62133 25.9573 7.28 25.744C5.40267 25.0187 4.03733 23.888 3.184 22.352C2.75733 21.584 2.43733 20.816 2.224 20.048C2.01067 19.2373 1.904 18.3413 1.904 17.36C1.904 16.5067 1.98933 15.7173 2.16 14.992C2.33067 14.224 2.544 13.52 2.8 12.88C3.312 11.6 4.144 10.4907 5.296 9.552C5.808 9.04 6.384 8.61333 7.024 8.272C7.70667 7.93067 8.432 7.58933 9.2 7.248C9.92533 6.90666 10.8427 6.65066 11.952 6.48C13.0613 6.30933 14.0427 6.18133 14.896 6.096C14.896 5.49866 14.896 4.88 14.896 4.24C14.896 3.55733 15.0667 2.98133 15.408 2.512C15.92 1.78666 16.3893 1.27466 16.816 0.975998C17.2427 0.67733 17.8827 0.570663 18.736 0.655998C19.504 0.74133 20.1867 0.933331 20.784 1.232C21.3813 1.53066 21.8293 2.064 22.128 2.832C22.128 2.91733 22.128 3.152 22.128 3.536C22.1707 3.87733 22.2133 4.26133 22.256 4.688C22.2987 5.15733 22.32 5.69066 22.32 6.288C23.6853 6.58666 25.0933 6.97066 26.544 7.44C28.0373 7.86666 29.3813 8.42133 30.576 9.104C31.5147 9.70133 32.2613 10.384 32.816 11.152C33.4133 11.8773 33.6907 12.7947 33.648 13.904C33.6053 14.5013 33.3707 15.0773 32.944 15.632C32.5173 16.1867 32.0053 16.5067 31.408 16.592C30.7253 16.6773 30.0853 16.5707 29.488 16.272C28.8907 15.9307 28.3147 15.6107 27.76 15.312C27.0347 14.9707 26.1813 14.6293 25.2 14.288C24.2613 13.904 23.3013 13.6693 22.32 13.584V22.416C23.216 22.672 24.1547 23.0133 25.136 23.44C26.1173 23.824 26.9707 24.1653 27.696 24.464C30.0853 25.4453 31.8347 27.0027 32.944 29.136C34.096 31.2267 34.6293 33.488 34.544 35.92C34.5013 37.5413 34.1813 39.0347 33.584 40.4C33.2427 40.9973 32.8587 41.552 32.432 42.064C32.0053 42.576 31.536 43.0453 31.024 43.472C30.512 43.9413 29.9573 44.3467 29.36 44.688C28.7627 44.9867 28.1013 45.3067 27.376 45.648C26.6507 45.8613 25.84 46.0747 24.944 46.288C24.048 46.4587 23.1733 46.6293 22.32 46.8C22.2773 46.8 22.2347 46.9493 22.192 47.248C22.192 47.504 22.192 47.8027 22.192 48.144C22.2347 48.4853 22.256 48.8267 22.256 49.168C22.2987 49.4667 22.32 49.6373 22.32 49.68C22.32 50.4053 22.1707 51.024 21.872 51.536ZM10.352 17.68C10.3947 18.0213 10.544 18.4053 10.8 18.832C11.056 19.216 11.3547 19.536 11.696 19.792C12.08 20.048 12.5493 20.2613 13.104 20.432C13.6587 20.56 14.256 20.6667 14.896 20.752V13.52C13.488 13.6053 12.3147 13.968 11.376 14.608C10.48 15.2053 10.1387 16.2293 10.352 17.68ZM27.44 34.832C27.3547 34.2773 27.1413 33.7653 26.8 33.296C26.5013 32.784 26.096 32.336 25.584 31.952C25.1147 31.568 24.5813 31.248 23.984 30.992C23.4293 30.6933 22.8747 30.48 22.32 30.352C22.32 31.8453 22.3413 33.36 22.384 34.896C22.4693 36.3893 22.4907 37.8827 22.448 39.376C23.088 39.4613 23.728 39.4187 24.368 39.248C25.008 39.0347 25.5627 38.736 26.032 38.352C26.5013 37.9253 26.864 37.4133 27.12 36.816C27.4187 36.2187 27.5253 35.5573 27.44 34.832Z" fill="url(#paint0_linear_1829_676)"/>
<path d="M74.4145 7.824C74.4572 8.12267 74.4785 8.4 74.4785 8.656C74.4785 8.912 74.4785 9.168 74.4785 9.424V12.048L74.0945 45.264V45.904C74.0945 46.16 74.0305 46.544 73.9025 47.056C73.8598 47.2693 73.7958 47.504 73.7105 47.76C73.6252 47.9733 73.5398 48.208 73.4545 48.464C73.2412 48.976 72.9425 49.36 72.5585 49.616C72.2172 49.9573 71.6625 50.192 70.8945 50.32C69.6998 50.576 68.6118 50.4693 67.6305 50C67.0758 49.6587 66.6918 49.232 66.4785 48.72C66.3932 48.6347 66.3078 48.5067 66.2225 48.336C66.2225 48.2507 66.1798 48.1227 66.0945 47.952C66.0092 47.7387 65.9452 47.5253 65.9025 47.312C65.8598 47.056 65.8172 46.8 65.7745 46.544C65.7745 46.3307 65.7532 46.1173 65.7105 45.904C65.7105 45.6907 65.6892 45.4773 65.6465 45.264C65.5612 45.0507 65.5185 44.88 65.5185 44.752C65.5185 44.5813 65.5185 44.3893 65.5185 44.176C65.6038 44.0053 65.6465 43.6853 65.6465 43.216L65.7105 38.16L65.7745 30.096H62.3185L49.3265 30.16L49.1985 45.264V45.904C49.1985 46.16 49.1345 46.544 49.0065 47.056C48.9638 47.2693 48.8998 47.504 48.8145 47.76C48.7292 47.9733 48.6438 48.208 48.5585 48.464C48.3452 48.976 48.0465 49.36 47.6625 49.616C47.3212 49.9573 46.7665 50.192 45.9985 50.32C44.8038 50.576 43.7158 50.4693 42.7345 50C42.3078 49.744 41.9025 49.3173 41.5185 48.72C41.4332 48.5493 41.3905 48.4213 41.3905 48.336L41.1985 47.952C41.1132 47.7387 41.0492 47.5253 41.0065 47.312C40.9638 47.056 40.9212 46.8 40.8785 46.544C40.8785 46.3307 40.8572 46.1173 40.8145 45.904C40.7718 45.6907 40.7292 45.4773 40.6865 45.264C40.6438 44.9227 40.6438 44.56 40.6865 44.176V43.216L40.7505 38.16L40.8785 28.752C40.9212 27.3867 40.9425 25.9787 40.9425 24.528C40.9425 23.0773 40.9425 21.584 40.9425 20.048C40.8998 18.512 40.8785 17.1467 40.8785 15.952C40.9212 14.7573 40.9852 13.4133 41.0705 11.92V11.664C41.1132 11.2373 41.1345 10.8107 41.1345 10.384C41.1345 9.91466 41.1558 9.44533 41.1985 8.976C41.2412 8.54933 41.3052 8.144 41.3905 7.76C41.5185 7.33333 41.6892 6.90667 41.9025 6.48C42.0305 6.13867 42.2012 5.86133 42.4145 5.648C42.6278 5.392 42.8838 5.15733 43.1825 4.944C43.8652 4.60266 44.5478 4.432 45.2305 4.432C45.5718 4.432 45.8705 4.45333 46.1265 4.496C46.3825 4.496 46.6385 4.51733 46.8945 4.56C47.4065 4.60266 47.8972 4.85866 48.3665 5.328C48.7078 5.62666 48.9425 5.968 49.0705 6.352C49.2838 6.90666 49.4118 7.39733 49.4545 7.824C49.4972 8.12267 49.5185 8.4 49.5185 8.656C49.5185 8.912 49.5185 9.168 49.5185 9.424V12.048L49.3905 22.608C49.7318 22.608 50.1158 22.608 50.5425 22.608C51.0118 22.608 51.5452 22.5867 52.1425 22.544C54.3612 22.544 56.5585 22.5653 58.7345 22.608C60.9532 22.6507 63.2785 22.672 65.7105 22.672H65.7745C65.7745 20.752 65.7745 18.9173 65.7745 17.168C65.8172 15.4187 65.8812 13.584 65.9665 11.664C65.9665 11.2373 65.9665 10.8107 65.9665 10.384C66.0092 9.91466 66.0518 9.44533 66.0945 8.976C66.1372 8.54933 66.2012 8.144 66.2865 7.76C66.4145 7.33333 66.5852 6.90667 66.7985 6.48C66.8838 6.13867 67.0332 5.86133 67.2465 5.648C67.5025 5.392 67.8012 5.15733 68.1425 4.944C68.7398 4.60266 69.4012 4.432 70.1265 4.432C70.4678 4.432 70.7665 4.45333 71.0225 4.496C71.3212 4.496 71.5772 4.51733 71.7905 4.56C72.3878 4.64533 72.8785 4.90133 73.2625 5.328C73.6038 5.54133 73.8385 5.88266 73.9665 6.352C74.0518 6.608 74.1158 6.864 74.1585 7.12C74.2438 7.33333 74.3292 7.568 74.4145 7.824ZM88.3905 12.368L88.2625 22.416H90.8225C92.5718 22.3733 94.1292 22.352 95.4945 22.352C96.8598 22.352 98.3745 22.3733 100.039 22.416H100.359C100.871 22.416 101.361 22.4373 101.831 22.48C102.343 22.48 102.833 22.48 103.303 22.48C103.815 22.5227 104.305 22.608 104.775 22.736C105.244 22.8213 105.713 22.928 106.183 23.056C106.908 23.312 107.505 23.696 107.975 24.208C108.401 24.7627 108.615 25.3813 108.615 26.064C108.615 26.2773 108.615 26.5333 108.615 26.832C108.615 27.088 108.572 27.3227 108.487 27.536C108.401 28.0053 108.124 28.432 107.655 28.816C107.441 29.1147 107.036 29.328 106.439 29.456C105.884 29.6267 105.329 29.7333 104.775 29.776C104.177 29.904 103.58 29.968 102.983 29.968H99.9745L88.1345 30.032L88.0065 42.576L100.743 42.704H103.751C104.092 42.704 104.412 42.704 104.711 42.704C105.009 42.704 105.287 42.7253 105.543 42.768C105.884 42.8533 106.183 42.9173 106.439 42.96C106.737 42.96 107.015 43.0027 107.271 43.088C107.783 43.2587 108.209 43.4933 108.551 43.792C108.977 44.2187 109.255 44.6667 109.382 45.136C109.425 45.3493 109.447 45.584 109.447 45.84C109.489 46.0533 109.489 46.288 109.447 46.544C109.447 47.2267 109.233 47.8453 108.807 48.4C108.295 48.9973 107.697 49.3813 107.015 49.552C106.119 49.936 105.137 50.128 104.071 50.128C103.601 50.1707 103.111 50.192 102.599 50.192C102.087 50.192 101.596 50.2133 101.127 50.256H100.743C97.4145 50.3413 93.9585 50.3413 90.3745 50.256C89.5212 50.256 88.8385 50.2347 88.3265 50.192C87.8145 50.192 87.3452 50.192 86.9185 50.192C86.5345 50.192 86.1292 50.192 85.7025 50.192C85.2758 50.192 84.7212 50.192 84.0385 50.192C83.0572 50.2773 82.2465 50.1067 81.6065 49.68C81.1372 49.3813 80.7745 48.976 80.5185 48.464C80.3905 48.336 80.3265 48.208 80.3265 48.08C80.2838 47.9947 80.2412 47.9307 80.1985 47.888C80.1558 47.8453 80.1132 47.7813 80.0705 47.696C79.9852 47.4827 79.9212 47.2693 79.8785 47.056C79.8358 46.8 79.8145 46.5653 79.8145 46.352C79.7718 46.1387 79.7292 45.9253 79.6865 45.712C79.6865 45.4987 79.6652 45.2853 79.6225 45.072V44.048C79.6225 43.8773 79.6225 43.7067 79.6225 43.536C79.6652 43.3653 79.6865 43.1947 79.6865 43.024V38.032L79.8145 28.816V20.304C79.8145 18.768 79.8145 17.4027 79.8145 16.208C79.8572 15.0133 79.8998 13.712 79.9425 12.304V11.984C79.9852 11.5147 80.0065 11.088 80.0065 10.704C80.0492 10.2773 80.0705 9.85067 80.0705 9.424C80.1132 8.57066 80.3478 7.73866 80.7745 6.928C80.9452 6.58666 81.1158 6.288 81.2865 6.032C81.4998 5.776 81.7772 5.56267 82.1185 5.392C82.7585 5.008 83.4198 4.816 84.1025 4.816C84.4438 4.816 84.6998 4.83733 84.8705 4.88V4.816C85.6385 4.816 86.2572 4.816 86.7265 4.816C87.1958 4.816 87.6438 4.816 88.0705 4.816C88.5398 4.816 89.0305 4.816 89.5425 4.816C90.0545 4.77333 90.7585 4.752 91.6545 4.752C93.3612 4.70933 94.9825 4.688 96.5185 4.688C98.0545 4.688 99.6332 4.70933 101.255 4.752H101.511C101.98 4.79467 102.471 4.816 102.983 4.816C103.495 4.816 103.985 4.83733 104.455 4.88C104.924 4.88 105.393 4.944 105.863 5.072C106.332 5.15733 106.801 5.28533 107.271 5.456C107.996 5.66933 108.593 6.032 109.062 6.544C109.447 7.14133 109.639 7.73867 109.639 8.336C109.639 8.592 109.639 8.848 109.639 9.104C109.639 9.31733 109.596 9.53067 109.511 9.744C109.468 10.1707 109.212 10.6187 108.743 11.088C108.572 11.1733 108.38 11.28 108.167 11.408C107.996 11.536 107.783 11.6427 107.527 11.728C107.271 11.8133 106.993 11.8773 106.695 11.92C106.439 11.92 106.183 11.9413 105.927 11.984C105.585 12.0693 105.265 12.112 104.967 12.112C104.711 12.112 104.412 12.112 104.071 12.112H101.191L88.3905 12.176V12.368ZM144.316 45.136C144.401 45.3493 144.444 45.6693 144.444 46.096C144.444 46.48 144.444 46.8 144.444 47.056C144.444 47.3973 144.38 47.7173 144.252 48.016C144.124 48.3147 143.953 48.592 143.74 48.848C143.356 49.36 142.801 49.744 142.076 50C141.052 50.3413 140.092 50.512 139.196 50.512C138.726 50.5547 138.236 50.576 137.724 50.576C137.212 50.576 136.7 50.6187 136.188 50.704H135.932C132.646 50.7467 129.254 50.7467 125.756 50.704C124.902 50.6613 123.942 50.6613 122.876 50.704C121.809 50.7893 120.764 50.768 119.74 50.64C118.716 50.5547 117.777 50.32 116.924 49.936C116.113 49.5093 115.537 48.848 115.196 47.952C115.11 47.7387 115.046 47.5467 115.004 47.376C114.961 47.1627 114.94 46.9493 114.94 46.736C114.769 45.2853 114.705 43.856 114.748 42.448C114.79 41.04 114.812 39.6533 114.812 38.288L114.94 29.008V20.432C114.94 18.896 114.94 17.5307 114.94 16.336C114.982 15.1413 115.025 13.8187 115.068 12.368V12.048C115.11 11.6213 115.132 11.1947 115.132 10.768C115.174 10.3413 115.196 9.91467 115.196 9.488C115.281 8.50667 115.516 7.67466 115.9 6.992C116.156 6.352 116.604 5.84 117.244 5.456C117.798 5.072 118.46 4.88 119.228 4.88C119.526 4.88 119.804 4.90133 120.06 4.944C120.358 4.944 120.636 4.96533 120.892 5.008C121.148 5.05067 121.382 5.136 121.595 5.264C121.852 5.392 122.108 5.56266 122.364 5.776C122.62 6.07467 122.854 6.43733 123.068 6.864C123.238 7.33333 123.345 7.80266 123.388 8.272C123.43 8.57066 123.473 8.848 123.516 9.104C123.558 9.36 123.58 9.616 123.58 9.872C123.494 10.128 123.452 10.384 123.452 10.64C123.452 10.896 123.452 11.1307 123.452 11.344V12.496L123.196 42.64L135.868 42.768H138.876C139.132 42.768 139.409 42.7893 139.708 42.832C140.006 42.832 140.305 42.8533 140.604 42.896C140.945 42.9387 141.244 42.9813 141.5 43.024C141.756 43.0667 142.012 43.1307 142.268 43.216C142.737 43.344 143.121 43.5573 143.42 43.856C143.889 44.2827 144.188 44.7093 144.316 45.136ZM151.544 43.216L151.608 38.16L151.672 28.752C151.715 27.3867 151.736 25.9787 151.736 24.528C151.736 23.0773 151.736 21.584 151.736 20.048C151.736 18.512 151.736 17.1467 151.736 15.952C151.736 14.7573 151.779 13.4133 151.864 11.92V11.664C151.907 11.2373 151.928 10.8107 151.928 10.384C151.971 9.91466 151.992 9.44533 151.992 8.976C152.035 8.208 152.269 7.376 152.696 6.48C152.995 5.88267 153.443 5.37067 154.04 4.944C154.723 4.60266 155.384 4.432 156.024 4.432C156.365 4.432 156.664 4.45333 156.92 4.496C157.219 4.496 157.496 4.51733 157.752 4.56C158.307 4.64533 158.797 4.90133 159.224 5.328C159.48 5.54133 159.715 5.88266 159.928 6.352C160.013 6.608 160.077 6.864 160.12 7.12C160.205 7.33333 160.269 7.568 160.312 7.824C160.355 8.12267 160.376 8.4 160.376 8.656C160.419 8.912 160.44 9.168 160.44 9.424C160.44 9.72267 160.419 10 160.376 10.256C160.376 10.4693 160.376 10.704 160.376 10.96V12.048L159.992 45.264V45.904C159.992 46.032 159.971 46.2027 159.928 46.416C159.928 46.5867 159.907 46.8 159.864 47.056C159.779 47.2693 159.693 47.504 159.608 47.76C159.565 47.9733 159.501 48.208 159.416 48.464C159.288 48.6773 159.139 48.8907 158.968 49.104C158.84 49.2747 158.669 49.4453 158.456 49.616C158.115 49.9573 157.56 50.192 156.792 50.32C155.64 50.576 154.552 50.4693 153.528 50C153.016 49.6587 152.653 49.232 152.44 48.72C152.312 48.592 152.248 48.464 152.248 48.336C152.205 48.2507 152.163 48.1867 152.12 48.144C152.077 48.1013 152.035 48.0373 151.992 47.952C151.907 47.7387 151.843 47.5253 151.8 47.312C151.757 47.056 151.736 46.8 151.736 46.544C151.693 46.3307 151.651 46.1173 151.608 45.904C151.608 45.6907 151.587 45.4773 151.544 45.264C151.501 44.9227 151.501 44.56 151.544 44.176V43.216ZM178.826 6.224C181.684 5.15733 184.266 4.688 186.57 4.816C188.916 4.944 191.007 5.54133 192.842 6.608C194.676 7.632 196.234 9.01866 197.514 10.768C198.836 12.5173 199.903 14.48 200.714 16.656C201.354 18.2773 201.844 19.984 202.186 21.776C202.527 23.568 202.719 25.36 202.762 27.152C202.847 28.9013 202.783 30.6293 202.569 32.336C202.399 34.0427 202.1 35.6213 201.674 37.072C201.418 38.0533 201.119 38.9493 200.778 39.76C200.436 40.5707 200.031 41.3813 199.562 42.192C198.495 44.0267 197.108 45.52 195.402 46.672C193.738 47.824 191.903 48.6347 189.898 49.104C188.532 49.4453 187.124 49.616 185.674 49.616C184.223 49.5733 182.794 49.3813 181.385 49.04C179.978 48.656 178.612 48.1227 177.29 47.44C176.01 46.7147 174.836 45.8187 173.77 44.752C172.447 43.472 171.359 42 170.506 40.336C169.652 38.6293 168.991 36.8587 168.522 35.024C168.052 33.1467 167.754 31.2693 167.626 29.392C167.498 27.5147 167.498 25.7227 167.626 24.016C167.754 22.4373 168.052 20.752 168.522 18.96C169.034 17.168 169.759 15.44 170.698 13.776C171.636 12.112 172.767 10.6187 174.09 9.296C175.455 7.93066 177.034 6.90666 178.826 6.224ZM193.802 33.616C194.314 31.6107 194.527 29.3493 194.442 26.832C194.356 24.3147 193.951 21.9467 193.226 19.728C192.756 18.3627 192.159 17.168 191.434 16.144C190.751 15.0773 189.919 14.2667 188.938 13.712C187.999 13.1573 186.89 12.88 185.61 12.88C184.33 12.88 182.9 13.264 181.322 14.032C180.383 14.5013 179.572 15.1413 178.89 15.952C178.25 16.7627 177.716 17.68 177.29 18.704C176.906 19.728 176.586 20.7947 176.33 21.904C176.116 23.0133 175.988 24.08 175.946 25.104C175.86 26.2133 175.839 27.3867 175.882 28.624C175.924 29.8187 176.052 31.0347 176.266 32.272C176.522 33.4667 176.863 34.6187 177.29 35.728C177.716 36.7947 178.292 37.7547 179.018 38.608C180.127 39.888 181.407 40.784 182.858 41.296C184.351 41.7653 185.823 41.8293 187.274 41.488C189.62 40.976 191.412 39.4187 192.65 36.816C193.162 35.8773 193.546 34.8107 193.802 33.616ZM241.15 31.376C241.363 31.9733 241.512 32.656 241.597 33.424C241.726 34.1493 241.79 34.896 241.79 35.664C241.79 36.432 241.726 37.2 241.597 37.968C241.512 38.6933 241.384 39.3333 241.214 39.888C240.531 42.2773 239.166 44.2827 237.118 45.904C235.07 47.4827 232.723 48.6347 230.078 49.36C227.475 50.0853 224.766 50.3413 221.95 50.128C219.176 49.9147 216.702 49.2107 214.526 48.016C213.16 47.248 211.987 46.3093 211.006 45.2C210.024 44.0907 209.192 42.8533 208.51 41.488C208.254 41.0187 208.083 40.4853 207.998 39.888C207.955 39.248 208.019 38.6507 208.19 38.096C208.36 37.4987 208.638 36.9867 209.022 36.56C209.406 36.0907 209.939 35.7707 210.622 35.6C211.048 35.5147 211.518 35.472 212.03 35.472C212.584 35.472 213.118 35.5573 213.63 35.728C214.142 35.856 214.611 36.0907 215.038 36.432C215.464 36.7307 215.806 37.1573 216.062 37.712C216.531 38.608 217.192 39.44 218.046 40.208C218.942 40.9333 219.88 41.5307 220.862 42C222.27 42.4693 223.678 42.6613 225.086 42.576C226.536 42.4907 227.838 42.1707 228.99 41.616C230.184 41.0613 231.144 40.3147 231.87 39.376C232.595 38.3947 232.958 37.2853 232.958 36.048C232.958 35.024 232.808 34.192 232.51 33.552C232.211 32.8693 231.784 32.3147 231.23 31.888C230.718 31.4187 230.078 31.0347 229.31 30.736C228.584 30.4373 227.774 30.1813 226.878 29.968C225.854 29.7547 224.808 29.6053 223.742 29.52C222.718 29.4347 221.672 29.328 220.606 29.2C219.539 29.072 218.494 28.9013 217.47 28.688C216.446 28.4747 215.443 28.1547 214.462 27.728C212.499 26.9173 211.006 25.68 209.982 24.016C208.958 22.352 208.339 20.56 208.126 18.64C207.955 16.72 208.19 14.8213 208.83 12.944C209.47 11.024 210.494 9.38133 211.902 8.016C213.267 6.77866 214.888 5.904 216.766 5.392C218.686 4.83733 220.798 4.51733 223.102 4.432C224.382 4.38933 225.662 4.432 226.942 4.56C228.264 4.688 229.523 4.90133 230.718 5.2C231.955 5.49866 233.086 5.88266 234.11 6.352C235.176 6.82133 236.094 7.376 236.862 8.016C237.416 8.44267 237.971 9.01867 238.526 9.744C239.08 10.4267 239.507 11.1733 239.806 11.984C240.104 12.752 240.19 13.4987 240.062 14.224C239.976 14.9493 239.528 15.568 238.718 16.08C238.035 16.5067 237.374 16.6987 236.734 16.656C236.136 16.5707 235.56 16.3787 235.006 16.08C234.451 15.7387 233.918 15.3547 233.406 14.928C232.894 14.5013 232.424 14.1173 231.998 13.776C230.846 12.9227 229.416 12.3467 227.71 12.048C226.003 11.7493 224.403 11.6853 222.91 11.856C221.971 11.984 221.096 12.1973 220.286 12.496C219.475 12.7947 218.771 13.2 218.174 13.712C217.619 14.224 217.171 14.864 216.83 15.632C216.531 16.3573 216.424 17.1893 216.51 18.128C216.552 18.8107 216.744 19.3867 217.086 19.856C217.47 20.3253 217.918 20.7093 218.43 21.008C218.984 21.3067 219.582 21.5413 220.222 21.712C220.862 21.8827 221.502 22.0107 222.142 22.096C224.062 22.352 225.982 22.544 227.902 22.672C229.822 22.8 231.699 23.2267 233.534 23.952C235.411 24.6773 237.011 25.6587 238.333 26.896C239.656 28.1333 240.595 29.6267 241.15 31.376Z" fill="white"/>
<defs>
<linearGradient id="paint0_linear_1829_676" x1="-2" y1="-9" x2="63.1827" y2="63.1263" gradientUnits="userSpaceOnUse">
<stop stop-color="#FF3968"/>
<stop offset="1" stop-color="#6D48FF"/>
</linearGradient>
</defs>
</svg>
