<svg width="285" height="63" viewBox="0 0 285 63" fill="none" xmlns="http://www.w3.org/2000/svg">
<path d="M46 31C46 39.2843 39.2843 46 31 46C22.7157 46 16 39.2843 16 31C16 22.7157 22.7157 16 31 16C39.2843 16 46 22.7157 46 31ZM19.75 31C19.75 37.2132 24.7868 42.25 31 42.25C37.2132 42.25 42.25 37.2132 42.25 31C42.25 24.7868 37.2132 19.75 31 19.75C24.7868 19.75 19.75 24.7868 19.75 31Z" fill="white"/>
<rect x="29" width="4" height="11" rx="2" fill="white"/>
<rect x="29" y="52" width="4" height="11" rx="2" fill="white"/>
<rect opacity="0.9" x="51" y="33" width="4" height="11" rx="2" transform="rotate(-90 51 33)" fill="white"/>
<rect opacity="0.9" y="33" width="4" height="11" rx="2" transform="rotate(-90 0 33)" fill="white"/>
<rect opacity="0.9" x="48.0244" y="16.3027" width="4" height="11" rx="2" transform="rotate(-135 48.0244 16.3027)" fill="white"/>
<rect opacity="0.9" x="7.82861" y="56.6064" width="4" height="11" rx="2" transform="rotate(-135 7.82861 56.6064)" fill="white"/>
<rect opacity="0.9" x="46" y="48.8281" width="4" height="11" rx="2" transform="rotate(-45 46 48.8281)" fill="white"/>
<rect opacity="0.9" x="6" y="9.82812" width="4" height="11" rx="2" transform="rotate(-45 6 9.82812)" fill="white"/>
<path d="M115.008 8.824C115.051 9.12267 115.072 9.4 115.072 9.656C115.072 9.912 115.072 10.168 115.072 10.424V13.048L114.688 46.264V46.904C114.688 47.16 114.624 47.544 114.496 48.056C114.454 48.2693 114.39 48.504 114.304 48.76C114.219 48.9733 114.134 49.208 114.048 49.464C113.835 49.976 113.536 50.36 113.152 50.616C112.811 50.9573 112.256 51.192 111.488 51.32C110.294 51.576 109.206 51.4693 108.224 51C107.67 50.6587 107.286 50.232 107.072 49.72C106.987 49.6347 106.902 49.5067 106.816 49.336C106.816 49.2507 106.774 49.1227 106.688 48.952C106.603 48.7387 106.539 48.5253 106.496 48.312C106.454 48.056 106.411 47.8 106.368 47.544C106.368 47.3307 106.347 47.1173 106.304 46.904C106.304 46.6907 106.283 46.4773 106.24 46.264C106.155 46.0507 106.112 45.88 106.112 45.752C106.112 45.5813 106.112 45.3893 106.112 45.176C106.198 45.0053 106.24 44.6853 106.24 44.216L106.304 39.16L106.368 31.096H102.912L89.9203 31.16L89.7923 46.264V46.904C89.7923 47.16 89.7283 47.544 89.6003 48.056C89.5576 48.2693 89.4936 48.504 89.4083 48.76C89.3229 48.9733 89.2376 49.208 89.1523 49.464C88.9389 49.976 88.6403 50.36 88.2563 50.616C87.9149 50.9573 87.3603 51.192 86.5923 51.32C85.3976 51.576 84.3096 51.4693 83.3283 51C82.9016 50.744 82.4963 50.3173 82.1123 49.72C82.0269 49.5493 81.9843 49.4213 81.9843 49.336L81.7923 48.952C81.7069 48.7387 81.6429 48.5253 81.6003 48.312C81.5576 48.056 81.5149 47.8 81.4723 47.544C81.4723 47.3307 81.4509 47.1173 81.4083 46.904C81.3656 46.6907 81.3229 46.4773 81.2803 46.264C81.2376 45.9227 81.2376 45.56 81.2803 45.176V44.216L81.3443 39.16L81.4723 29.752C81.5149 28.3867 81.5363 26.9787 81.5363 25.528C81.5363 24.0773 81.5363 22.584 81.5363 21.048C81.4936 19.512 81.4723 18.1467 81.4723 16.952C81.5149 15.7573 81.5789 14.4133 81.6643 12.92V12.664C81.7069 12.2373 81.7283 11.8107 81.7283 11.384C81.7283 10.9147 81.7496 10.4453 81.7923 9.976C81.8349 9.54933 81.8989 9.144 81.9843 8.76C82.1123 8.33333 82.2829 7.90667 82.4963 7.48C82.6243 7.13867 82.7949 6.86133 83.0083 6.648C83.2216 6.392 83.4776 6.15733 83.7763 5.944C84.4589 5.60266 85.1416 5.432 85.8243 5.432C86.1656 5.432 86.4643 5.45333 86.7203 5.496C86.9763 5.496 87.2323 5.51733 87.4883 5.56C88.0003 5.60266 88.4909 5.85866 88.9603 6.328C89.3016 6.62666 89.5363 6.968 89.6643 7.352C89.8776 7.90666 90.0056 8.39733 90.0483 8.824C90.0909 9.12267 90.1123 9.4 90.1123 9.656C90.1123 9.912 90.1123 10.168 90.1123 10.424V13.048L89.9843 23.608C90.3256 23.608 90.7096 23.608 91.1363 23.608C91.6056 23.608 92.1389 23.5867 92.7363 23.544C94.9549 23.544 97.1523 23.5653 99.3283 23.608C101.547 23.6507 103.872 23.672 106.304 23.672H106.368C106.368 21.752 106.368 19.9173 106.368 18.168C106.411 16.4187 106.475 14.584 106.56 12.664C106.56 12.2373 106.56 11.8107 106.56 11.384C106.603 10.9147 106.646 10.4453 106.688 9.976C106.731 9.54933 106.795 9.144 106.88 8.76C107.008 8.33333 107.179 7.90667 107.392 7.48C107.478 7.13867 107.627 6.86133 107.84 6.648C108.096 6.392 108.395 6.15733 108.736 5.944C109.334 5.60266 109.995 5.432 110.72 5.432C111.062 5.432 111.36 5.45333 111.616 5.496C111.915 5.496 112.171 5.51733 112.384 5.56C112.982 5.64533 113.472 5.90133 113.856 6.328C114.198 6.54133 114.432 6.88266 114.56 7.352C114.646 7.608 114.71 7.864 114.752 8.12C114.838 8.33333 114.923 8.568 115.008 8.824ZM128.984 13.368L128.856 23.416H131.416C133.166 23.3733 134.723 23.352 136.088 23.352C137.454 23.352 138.968 23.3733 140.632 23.416H140.952C141.464 23.416 141.955 23.4373 142.424 23.48C142.936 23.48 143.427 23.48 143.896 23.48C144.408 23.5227 144.899 23.608 145.368 23.736C145.838 23.8213 146.307 23.928 146.776 24.056C147.502 24.312 148.099 24.696 148.568 25.208C148.995 25.7627 149.208 26.3813 149.208 27.064C149.208 27.2773 149.208 27.5333 149.208 27.832C149.208 28.088 149.166 28.3227 149.08 28.536C148.995 29.0053 148.718 29.432 148.248 29.816C148.035 30.1147 147.63 30.328 147.032 30.456C146.478 30.6267 145.923 30.7333 145.368 30.776C144.771 30.904 144.174 30.968 143.576 30.968H140.568L128.728 31.032L128.6 43.576L141.336 43.704H144.344C144.686 43.704 145.006 43.704 145.304 43.704C145.603 43.704 145.88 43.7253 146.136 43.768C146.478 43.8533 146.776 43.9173 147.032 43.96C147.331 43.96 147.608 44.0027 147.864 44.088C148.376 44.2587 148.803 44.4933 149.144 44.792C149.571 45.2187 149.848 45.6667 149.976 46.136C150.019 46.3493 150.04 46.584 150.04 46.84C150.083 47.0533 150.083 47.288 150.04 47.544C150.04 48.2267 149.827 48.8453 149.4 49.4C148.888 49.9973 148.291 50.3813 147.608 50.552C146.712 50.936 145.731 51.128 144.664 51.128C144.195 51.1707 143.704 51.192 143.192 51.192C142.68 51.192 142.19 51.2133 141.72 51.256H141.336C138.008 51.3413 134.552 51.3413 130.968 51.256C130.115 51.256 129.432 51.2347 128.92 51.192C128.408 51.192 127.939 51.192 127.512 51.192C127.128 51.192 126.723 51.192 126.296 51.192C125.87 51.192 125.315 51.192 124.632 51.192C123.651 51.2773 122.84 51.1067 122.2 50.68C121.731 50.3813 121.368 49.976 121.112 49.464C120.984 49.336 120.92 49.208 120.92 49.08C120.878 48.9947 120.835 48.9307 120.792 48.888C120.75 48.8453 120.707 48.7813 120.664 48.696C120.579 48.4827 120.515 48.2693 120.472 48.056C120.43 47.8 120.408 47.5653 120.408 47.352C120.366 47.1387 120.323 46.9253 120.28 46.712C120.28 46.4987 120.259 46.2853 120.216 46.072V45.048C120.216 44.8773 120.216 44.7067 120.216 44.536C120.259 44.3653 120.28 44.1947 120.28 44.024V39.032L120.408 29.816V21.304C120.408 19.768 120.408 18.4027 120.408 17.208C120.451 16.0133 120.494 14.712 120.536 13.304V12.984C120.579 12.5147 120.6 12.088 120.6 11.704C120.643 11.2773 120.664 10.8507 120.664 10.424C120.707 9.57066 120.942 8.73866 121.368 7.928C121.539 7.58666 121.71 7.288 121.88 7.032C122.094 6.776 122.371 6.56267 122.712 6.392C123.352 6.008 124.014 5.816 124.696 5.816C125.038 5.816 125.294 5.83733 125.464 5.88V5.816C126.232 5.816 126.851 5.816 127.32 5.816C127.79 5.816 128.238 5.816 128.664 5.816C129.134 5.816 129.624 5.816 130.136 5.816C130.648 5.77333 131.352 5.752 132.248 5.752C133.955 5.70933 135.576 5.688 137.112 5.688C138.648 5.688 140.227 5.70933 141.848 5.752H142.104C142.574 5.79467 143.064 5.816 143.576 5.816C144.088 5.816 144.579 5.83733 145.048 5.88C145.518 5.88 145.987 5.944 146.456 6.072C146.926 6.15733 147.395 6.28533 147.864 6.456C148.59 6.66933 149.187 7.032 149.656 7.544C150.04 8.14133 150.232 8.73867 150.232 9.336C150.232 9.592 150.232 9.848 150.232 10.104C150.232 10.3173 150.19 10.5307 150.104 10.744C150.062 11.1707 149.806 11.6187 149.336 12.088C149.166 12.1733 148.974 12.28 148.76 12.408C148.59 12.536 148.376 12.6427 148.12 12.728C147.864 12.8133 147.587 12.8773 147.288 12.92C147.032 12.92 146.776 12.9413 146.52 12.984C146.179 13.0693 145.859 13.112 145.56 13.112C145.304 13.112 145.006 13.112 144.664 13.112H141.784L128.984 13.176V13.368ZM184.909 46.136C184.995 46.3493 185.037 46.6693 185.037 47.096C185.037 47.48 185.037 47.8 185.037 48.056C185.037 48.3973 184.973 48.7173 184.845 49.016C184.717 49.3147 184.547 49.592 184.333 49.848C183.949 50.36 183.395 50.744 182.669 51C181.645 51.3413 180.685 51.512 179.789 51.512C179.32 51.5547 178.829 51.576 178.317 51.576C177.805 51.576 177.293 51.6187 176.781 51.704H176.525C173.24 51.7467 169.848 51.7467 166.349 51.704C165.496 51.6613 164.536 51.6613 163.469 51.704C162.403 51.7893 161.357 51.768 160.333 51.64C159.309 51.5547 158.371 51.32 157.517 50.936C156.707 50.5093 156.131 49.848 155.789 48.952C155.704 48.7387 155.64 48.5467 155.597 48.376C155.555 48.1627 155.533 47.9493 155.533 47.736C155.363 46.2853 155.299 44.856 155.341 43.448C155.384 42.04 155.405 40.6533 155.405 39.288L155.533 30.008V21.432C155.533 19.896 155.533 18.5307 155.533 17.336C155.576 16.1413 155.619 14.8187 155.661 13.368V13.048C155.704 12.6213 155.725 12.1947 155.725 11.768C155.768 11.3413 155.789 10.9147 155.789 10.488C155.875 9.50667 156.109 8.67466 156.493 7.992C156.749 7.352 157.197 6.84 157.837 6.456C158.392 6.072 159.053 5.88 159.821 5.88C160.12 5.88 160.397 5.90133 160.653 5.944C160.952 5.944 161.229 5.96533 161.485 6.008C161.741 6.05067 161.976 6.136 162.189 6.264C162.445 6.392 162.701 6.56266 162.957 6.776C163.213 7.07467 163.448 7.43733 163.661 7.864C163.832 8.33333 163.939 8.80266 163.981 9.272C164.024 9.57066 164.067 9.848 164.109 10.104C164.152 10.36 164.173 10.616 164.173 10.872C164.088 11.128 164.045 11.384 164.045 11.64C164.045 11.896 164.045 12.1307 164.045 12.344V13.496L163.789 43.64L176.461 43.768H179.469C179.725 43.768 180.003 43.7893 180.301 43.832C180.6 43.832 180.899 43.8533 181.197 43.896C181.539 43.9387 181.837 43.9813 182.093 44.024C182.349 44.0667 182.605 44.1307 182.861 44.216C183.331 44.344 183.715 44.5573 184.013 44.856C184.483 45.2827 184.781 45.7093 184.909 46.136ZM192.138 44.216L192.202 39.16L192.266 29.752C192.308 28.3867 192.33 26.9787 192.33 25.528C192.33 24.0773 192.33 22.584 192.33 21.048C192.33 19.512 192.33 18.1467 192.33 16.952C192.33 15.7573 192.372 14.4133 192.458 12.92V12.664C192.5 12.2373 192.522 11.8107 192.522 11.384C192.564 10.9147 192.586 10.4453 192.586 9.976C192.628 9.208 192.863 8.376 193.29 7.48C193.588 6.88267 194.036 6.37067 194.634 5.944C195.316 5.60266 195.978 5.432 196.618 5.432C196.959 5.432 197.258 5.45333 197.514 5.496C197.812 5.496 198.09 5.51733 198.346 5.56C198.9 5.64533 199.391 5.90133 199.818 6.328C200.074 6.54133 200.308 6.88266 200.522 7.352C200.607 7.608 200.671 7.864 200.714 8.12C200.799 8.33333 200.863 8.568 200.906 8.824C200.948 9.12267 200.97 9.4 200.97 9.656C201.012 9.912 201.034 10.168 201.034 10.424C201.034 10.7227 201.012 11 200.97 11.256C200.97 11.4693 200.97 11.704 200.97 11.96V13.048L200.586 46.264V46.904C200.586 47.032 200.564 47.2027 200.522 47.416C200.522 47.5867 200.5 47.8 200.458 48.056C200.372 48.2693 200.287 48.504 200.202 48.76C200.159 48.9733 200.095 49.208 200.01 49.464C199.882 49.6773 199.732 49.8907 199.562 50.104C199.434 50.2747 199.263 50.4453 199.05 50.616C198.708 50.9573 198.154 51.192 197.386 51.32C196.234 51.576 195.146 51.4693 194.122 51C193.61 50.6587 193.247 50.232 193.034 49.72C192.906 49.592 192.842 49.464 192.842 49.336C192.799 49.2507 192.756 49.1867 192.714 49.144C192.671 49.1013 192.628 49.0373 192.586 48.952C192.5 48.7387 192.436 48.5253 192.394 48.312C192.351 48.056 192.33 47.8 192.33 47.544C192.287 47.3307 192.244 47.1173 192.202 46.904C192.202 46.6907 192.18 46.4773 192.138 46.264C192.095 45.9227 192.095 45.56 192.138 45.176V44.216ZM219.419 7.224C222.278 6.15733 224.859 5.688 227.163 5.816C229.51 5.944 231.601 6.54133 233.435 7.608C235.27 8.632 236.827 10.0187 238.107 11.768C239.43 13.5173 240.497 15.48 241.307 17.656C241.947 19.2773 242.438 20.984 242.779 22.776C243.121 24.568 243.313 26.36 243.355 28.152C243.441 29.9013 243.377 31.6293 243.163 33.336C242.993 35.0427 242.694 36.6213 242.267 38.072C242.011 39.0533 241.713 39.9493 241.371 40.76C241.03 41.5707 240.625 42.3813 240.155 43.192C239.089 45.0267 237.702 46.52 235.995 47.672C234.331 48.824 232.497 49.6347 230.491 50.104C229.126 50.4453 227.718 50.616 226.267 50.616C224.817 50.5733 223.387 50.3813 221.979 50.04C220.571 49.656 219.206 49.1227 217.883 48.44C216.603 47.7147 215.43 46.8187 214.363 45.752C213.041 44.472 211.953 43 211.099 41.336C210.246 39.6293 209.585 37.8587 209.115 36.024C208.646 34.1467 208.347 32.2693 208.219 30.392C208.091 28.5147 208.091 26.7227 208.219 25.016C208.347 23.4373 208.646 21.752 209.115 19.96C209.627 18.168 210.353 16.44 211.291 14.776C212.23 13.112 213.361 11.6187 214.683 10.296C216.049 8.93066 217.627 7.90666 219.419 7.224ZM234.395 34.616C234.907 32.6107 235.121 30.3493 235.035 27.832C234.95 25.3147 234.545 22.9467 233.819 20.728C233.35 19.3627 232.753 18.168 232.027 17.144C231.345 16.0773 230.513 15.2667 229.531 14.712C228.593 14.1573 227.483 13.88 226.203 13.88C224.923 13.88 223.494 14.264 221.915 15.032C220.977 15.5013 220.166 16.1413 219.483 16.952C218.843 17.7627 218.31 18.68 217.883 19.704C217.499 20.728 217.179 21.7947 216.923 22.904C216.71 24.0133 216.582 25.08 216.539 26.104C216.454 27.2133 216.433 28.3867 216.475 29.624C216.518 30.8187 216.646 32.0347 216.859 33.272C217.115 34.4667 217.457 35.6187 217.883 36.728C218.31 37.7947 218.886 38.7547 219.611 39.608C220.721 40.888 222.001 41.784 223.451 42.296C224.945 42.7653 226.417 42.8293 227.867 42.488C230.214 41.976 232.006 40.4187 233.243 37.816C233.755 36.8773 234.139 35.8107 234.395 34.616ZM281.743 32.376C281.957 32.9733 282.106 33.656 282.191 34.424C282.319 35.1493 282.383 35.896 282.383 36.664C282.383 37.432 282.319 38.2 282.191 38.968C282.106 39.6933 281.978 40.3333 281.807 40.888C281.125 43.2773 279.759 45.2827 277.711 46.904C275.663 48.4827 273.317 49.6347 270.671 50.36C268.069 51.0853 265.359 51.3413 262.543 51.128C259.77 50.9147 257.295 50.2107 255.119 49.016C253.754 48.248 252.581 47.3093 251.599 46.2C250.618 45.0907 249.786 43.8533 249.103 42.488C248.847 42.0187 248.677 41.4853 248.591 40.888C248.549 40.248 248.613 39.6507 248.783 39.096C248.954 38.4987 249.231 37.9867 249.615 37.56C249.999 37.0907 250.533 36.7707 251.215 36.6C251.642 36.5147 252.111 36.472 252.623 36.472C253.178 36.472 253.711 36.5573 254.223 36.728C254.735 36.856 255.205 37.0907 255.631 37.432C256.058 37.7307 256.399 38.1573 256.655 38.712C257.125 39.608 257.786 40.44 258.639 41.208C259.535 41.9333 260.474 42.5307 261.455 43C262.863 43.4693 264.271 43.6613 265.679 43.576C267.13 43.4907 268.431 43.1707 269.583 42.616C270.778 42.0613 271.738 41.3147 272.463 40.376C273.189 39.3947 273.551 38.2853 273.551 37.048C273.551 36.024 273.402 35.192 273.103 34.552C272.805 33.8693 272.378 33.3147 271.823 32.888C271.311 32.4187 270.671 32.0347 269.903 31.736C269.178 31.4373 268.367 31.1813 267.471 30.968C266.447 30.7547 265.402 30.6053 264.335 30.52C263.311 30.4347 262.266 30.328 261.199 30.2C260.133 30.072 259.087 29.9013 258.063 29.688C257.039 29.4747 256.037 29.1547 255.055 28.728C253.093 27.9173 251.599 26.68 250.575 25.016C249.551 23.352 248.933 21.56 248.719 19.64C248.549 17.72 248.783 15.8213 249.423 13.944C250.063 12.024 251.087 10.3813 252.495 9.016C253.861 7.77866 255.482 6.904 257.359 6.392C259.279 5.83733 261.391 5.51733 263.695 5.432C264.975 5.38933 266.255 5.432 267.535 5.56C268.858 5.688 270.117 5.90133 271.311 6.2C272.549 6.49866 273.679 6.88266 274.703 7.352C275.77 7.82133 276.687 8.376 277.455 9.016C278.01 9.44267 278.565 10.0187 279.119 10.744C279.674 11.4267 280.101 12.1733 280.399 12.984C280.698 13.752 280.783 14.4987 280.655 15.224C280.57 15.9493 280.122 16.568 279.311 17.08C278.629 17.5067 277.967 17.6987 277.327 17.656C276.73 17.5707 276.154 17.3787 275.599 17.08C275.045 16.7387 274.511 16.3547 273.999 15.928C273.487 15.5013 273.018 15.1173 272.591 14.776C271.439 13.9227 270.01 13.3467 268.303 13.048C266.597 12.7493 264.997 12.6853 263.503 12.856C262.565 12.984 261.69 13.1973 260.879 13.496C260.069 13.7947 259.365 14.2 258.767 14.712C258.213 15.224 257.765 15.864 257.423 16.632C257.125 17.3573 257.018 18.1893 257.103 19.128C257.146 19.8107 257.338 20.3867 257.679 20.856C258.063 21.3253 258.511 21.7093 259.023 22.008C259.578 22.3067 260.175 22.5413 260.815 22.712C261.455 22.8827 262.095 23.0107 262.735 23.096C264.655 23.352 266.575 23.544 268.495 23.672C270.415 23.8 272.293 24.2267 274.127 24.952C276.005 25.6773 277.605 26.6587 278.927 27.896C280.25 29.1333 281.189 30.6267 281.743 32.376Z" fill="white"/>
</svg>
